<svg version="1.1" xmlns="http://www.w3.org/2000/svg" style="display: block;" viewBox="0 0 512 512" width="128" height="128" preserveAspectRatio="none">
<path transform="translate(0,0)" fill="rgb(120,154,66)" d="M 243.007 4.42363 C 284.83 1.34639 326.741 9.07551 364.715 26.8685 C 425.71 54.868 475.854 109.832 497.581 172.89 C 499.372 178.088 502.117 184.211 499.717 189.401 C 493.186 193.84 483.791 192.273 480.652 183.874 C 476.175 171.899 471.309 158.704 464.26 148.072 C 442.478 146.959 419.56 148.44 397.026 147.283 C 397.832 156.496 403.874 178.95 406.178 189.7 C 381.612 192.902 385.111 186.209 380.633 165.349 C 379.411 159.399 377.68 153.564 375.46 147.909 C 343.677 146.286 303.44 148.778 270.019 147.676 C 270.092 159.372 269.291 173.391 268.909 185.248 C 269.392 187.608 269.456 186.685 268.391 189.028 C 261.085 192.245 249.954 192.795 250.495 182.007 C 251.045 171.025 250.541 158.558 249.45 147.623 C 227.849 148.355 206.239 148.792 184.626 148.933 C 172.185 149.101 155.607 149.781 143.512 148.686 C 138.458 164.403 138.792 176.155 132.482 190.765 C 129.447 191.288 117.988 192.363 116.42 191.137 C 110.149 186.232 121.918 154.182 123.752 149.366 C 109.528 148.422 69.7788 148.79 54.8559 150.378 C 49.9109 150.904 40.004 182.322 36.6051 189.995 C 12.6628 195.263 16.8325 187.564 22.9502 170.469 C 33.8133 140.114 49.0927 114.232 70.4261 90.0931 C 114.277 39.73 176.379 8.90261 243.007 4.42363 z M 156.728 129.242 C 172.565 129.811 238.053 130.497 251.016 127.982 C 250.898 112.185 251.741 32.186 249.294 24.4595 L 247.384 23.1585 C 209.073 33.6169 188.176 56.9049 168.009 90.5757 C 164.867 95.822 150.821 123.841 150.597 128.541 C 153.424 129.951 153.35 129.465 156.728 129.242 z M 269.959 128.457 C 283.923 129.756 305.205 128.617 319.924 128.602 C 333.539 128.589 351.714 129.447 364.602 128.353 L 367.179 128.285 L 368.111 126.555 C 354.327 87.0387 316.373 29.3729 271.425 24.369 C 267.958 28.919 269.737 117.644 269.959 128.457 z M 451.885 128.095 C 442.859 109.11 414.646 82.9754 398.32 70.3527 C 388.247 62.5647 351.784 40.3352 339.388 38.4231 C 342.688 44.81 359.743 66.8503 365.335 73.7802 C 372.384 82.5159 388.87 125.158 392.824 127.628 C 401.35 130.148 441.539 128.984 451.885 128.095 z M 75.1188 128.741 C 83.8473 128.349 123.359 130.585 127.641 125.772 C 133.227 119.493 136.212 106.684 139.802 98.8776 C 142.474 93.0673 145.751 87.4033 148.895 81.8319 C 153.568 73.4375 158.879 65.4138 164.779 57.8316 C 168.044 53.6527 174.446 46.3894 176.817 42.4119 L 176.08 41.0174 L 174.305 40.9602 C 141.615 50.7927 88.3723 93.3917 70.3252 124.255 C 69.8831 125.011 69.6953 126.285 69.6325 127.178 L 71.0113 128.651 C 71.9662 128.682 74.2896 128.811 75.1188 128.741 z"/>
<path transform="translate(0,0)" fill="rgb(120,154,66)" d="M 481.772 337.399 C 488.521 337.541 492.575 337.039 499.265 336.239 C 479.991 389.634 454.934 423.278 410.944 458.749 C 378.032 486.98 329.375 503.217 286.581 507.737 C 178.632 519.14 76.5914 461.278 30.7684 363.151 C 28.2724 357.806 19.8501 344.07 24.2059 339.121 C 42.6607 331.293 46.7565 352.372 53.6858 364.447 C 76.7056 363.808 100.391 364.142 123.458 364.295 C 121.062 356.335 114.693 345.316 118.752 337.658 C 141.503 335.3 136.675 346.036 142.828 364.142 C 176.749 363.204 216.287 364.063 250.4 364.249 C 250.733 358.515 245.468 328.495 266.468 341.483 C 270.686 344.091 269.805 359.188 269.807 365.112 C 303.076 363.14 342.729 363.973 376.464 364.337 C 380.198 352.043 378.807 335.684 397.54 337.381 C 399.622 337.569 400.346 339.463 401.274 341.016 C 402.151 347.531 397.861 358.521 395.79 365.123 C 410.234 363.075 449.936 364.102 465.411 364.297 C 470.24 354.349 473.747 344.909 481.772 337.399 z M 269.504 491.288 C 297.395 482.567 309.318 475.926 328.725 454.107 C 347.228 434.935 361.094 408.717 370.451 383.879 L 308.696 383.926 C 297.86 383.952 280.028 384.462 269.646 383.114 C 269.683 414.469 266.578 461.61 269.504 491.288 z M 66.8348 384.178 C 69.5655 391.248 76.6936 399.392 81.5674 405.156 C 104.259 431.993 132.174 453.942 164.168 468.601 C 168.259 470.475 174.902 474.299 179.008 472.235 C 149.348 437.475 144.988 424.351 126.783 384.405 C 108.319 384.375 84.8599 383.538 66.8348 384.178 z M 455.202 385.081 C 433.874 384.181 413.221 384.635 392.224 383.986 C 387.054 393.56 380.746 408.583 376.632 418.973 C 368.098 440.526 348.454 457.672 338.493 476.426 C 349.211 471.406 371.276 461.679 380.209 454.92 C 399.967 443.624 419.119 425.787 434.277 408.842 C 440.842 401.503 448.002 391.448 455.202 385.081 z M 157.947 383.453 C 154.902 383.742 153.214 383.354 151.156 385.077 C 150.522 392.908 170.956 427.486 175.493 434.548 C 190.413 457.769 218.08 485.042 246.68 488.63 L 248.903 488.467 C 250.276 486.518 250.609 392.804 250.265 384.207 C 224.655 381.505 185.666 385.049 157.947 383.453 z"/>
<path transform="translate(0,0)" fill="rgb(46,128,187)" d="M 442.025 218.085 C 457.745 216.423 464.839 224.482 470.174 238.341 C 468.589 247.746 467.96 249.867 462.02 257.215 C 470.758 264.338 487.732 284.79 478.814 297.861 C 475.839 302.222 457.3 301.042 451.75 300.983 C 442.773 301.565 431.627 300.854 422.624 300.091 C 414.776 299.426 412.704 292.922 414.149 285.97 C 416.518 274.336 423.48 264.149 433.458 257.715 C 421.001 240.185 423.114 228.364 442.025 218.085 z"/>
<path transform="translate(0,0)" fill="rgb(201,65,53)" d="M 68.8334 219.31 C 69.2082 219.284 69.5832 219.261 69.9583 219.242 C 89.5776 218.272 99.3635 233.537 92.2801 251.514 C 92.1294 251.896 90.0454 257.859 90.0116 257.793 C 94.9395 267.475 108.539 279.717 108.735 291.38 C 108.792 293.67 107.906 295.883 106.284 297.5 C 100.54 303.329 87.9667 302.131 80.1143 302.018 C 60.0136 301.577 31.9865 309.58 43.3089 277.445 C 46.2702 269.041 52.2059 264.163 58.4688 258.325 C 55.4012 251.735 54.1268 247.611 52.0033 240.627 C 52.1277 240.09 52.2577 239.554 52.3934 239.019 C 54.8126 229.512 60.5297 224.232 68.8334 219.31 z"/>
<path transform="translate(0,0)" fill="rgb(238,174,61)" d="M 255.867 219.234 C 270.689 218.255 277.283 226.415 282.7 238.897 C 280.746 244.982 277.22 251.091 274.204 256.772 C 281.158 266.282 293.564 274.846 293.25 289.204 C 292.96 302.426 274.148 299.976 265.764 299.705 C 257.57 299.911 234.648 302.023 230.001 296.468 C 220.313 284.886 240.21 263.747 247.314 256.617 C 236.648 238.105 237.35 231.675 255.867 219.234 z"/>
</svg>